<svg id="Layer_1" data-name="Layer 1" xmlns="http://www.w3.org/2000/svg" viewBox="0 0 80 23">
  <title>logo_ABBYY_red on white_80x23</title>
  <g>
    <path d="M55.045.034S53.02,7.846,52.561,9.255C52.126,7.84,50.047.034,50.047.034H45.978s4,14.908,4,14.982V23h5.046V15.018c0-.079,4.068-14.985,4.068-14.985Z" fill="#c60c30"/>
    <path d="M70.067.034s-2.186,7.812-2.645,9.221C66.987,7.84,65.114.034,65.114.034H61.069S65,14.941,65,15.016V23h5.03V15.018c0-.079,4.064-14.985,4.064-14.985Z" fill="#c60c30"/>
    <path d="M6.512,14.8,8.025,6.6l1.513,8.2ZM11.15,23h4.43L11.088.034H5.063L.571,23H5l.934-4.921h4.236Z" fill="#c60c30"/>
    <path d="M78.016.034a1.983,1.983,0,1,1-1.987,1.983A1.974,1.974,0,0,1,78.016.034Zm0,3.667a1.641,1.641,0,0,0,1.609-1.683,1.611,1.611,0,1,0-3.219,0A1.64,1.64,0,0,0,78.016,3.7Zm-.725-2.692h.877a.568.568,0,0,1,.652.573.459.459,0,0,1-.335.453v.011c.255.051.27.278.285.477.015.306,0,.362.079.47h-.383c-.066-.079-.061-.125-.072-.454,0-.18-.018-.368-.435-.368h-.3v.821h-.366Zm.366.89h.424c.309,0,.365-.176.365-.317,0-.238-.164-.3-.4-.3h-.388Z" fill="#c60c30"/>
    <path d="M23.458,13c1.7,0,2.562,1.2,2.563,3.231,0,2.73-1.53,3.269-2.511,3.269H22V13Zm-.125-9.5c1.559,0,2.292,1.382,2.292,2.984,0,1.771-.912,3.047-1.8,3.047H22V3.5ZM17.007-.012V23.031h6.569c5.132,0,6.536-3.328,6.536-6.159,0-2.416-.454-4.922-3.117-5.75A5.1,5.1,0,0,0,30.02,6.158C30.02.708,26.4,0,23.882,0Z" fill="#c60c30"/>
    <path d="M38.458,13c1.7,0,2.562,1.2,2.563,3.231,0,2.73-1.53,3.269-2.511,3.269H37V13Zm-.125-9.5c1.559,0,2.292,1.382,2.292,2.984,0,1.771-.912,3.047-1.8,3.047H37V3.5ZM32.007-.012V23.031h6.569c5.132,0,6.536-3.328,6.536-6.159,0-2.416-.454-4.922-3.117-5.75A5.1,5.1,0,0,0,45.02,6.158C45.02.708,41.4,0,38.882,0Z" fill="#c60c30"/>
  </g>
</svg>
