<?xml version="1.0" encoding="UTF-8" standalone="no"?>
<!-- Created with Inkscape (http://www.inkscape.org/) -->

<svg
   xmlns:dc="http://purl.org/dc/elements/1.1/"
   xmlns:cc="http://creativecommons.org/ns#"
   xmlns:rdf="http://www.w3.org/1999/02/22-rdf-syntax-ns#"
   xmlns:svg="http://www.w3.org/2000/svg"
   xmlns="http://www.w3.org/2000/svg"
   xmlns:sodipodi="http://sodipodi.sourceforge.net/DTD/sodipodi-0.dtd"
   xmlns:inkscape="http://www.inkscape.org/namespaces/inkscape"
   width="297mm"
   height="210mm"
   viewBox="0 0 1052.3622 744.09448"
   id="svg2"
   version="1.1"
   inkscape:version="0.91 r13725"
   sodipodi:docname="Лого1111.svg">
  <defs
     id="defs4" />
  <sodipodi:namedview
     id="base"
     pagecolor="#ffffff"
     bordercolor="#666666"
     borderopacity="1.0"
     inkscape:pageopacity="0.0"
     inkscape:pageshadow="2"
     inkscape:zoom="0.49497475"
     inkscape:cx="763.63935"
     inkscape:cy="194.16877"
     inkscape:document-units="px"
     inkscape:current-layer="layer1"
     showgrid="false"
     inkscape:window-width="1366"
     inkscape:window-height="746"
     inkscape:window-x="-8"
     inkscape:window-y="-8"
     inkscape:window-maximized="1" />
  <metadata
     id="metadata7">
    <rdf:RDF>
      <cc:Work
         rdf:about="">
        <dc:format>image/svg+xml</dc:format>
        <dc:type
           rdf:resource="http://purl.org/dc/dcmitype/StillImage" />
        <dc:title></dc:title>
      </cc:Work>
    </rdf:RDF>
  </metadata>
  <g
     inkscape:label="Layer 1"
     inkscape:groupmode="layer"
     id="layer1"
     transform="translate(0,-308.26772)">
    <g
       id="g4238"
       transform="matrix(0.57632758,0,0,0.57632758,83.357848,301.26439)">
      <path
         sodipodi:nodetypes="sscsssssscsscssssssssssssscsscsssscscsssscsscsscs"
         style="fill:#3cace0"
         d="m 116.39167,938.71132 c -1.375,-0.6837 -3.33725,-2.9537 -4.36056,-5.0443 l -1.86056,-3.80113 15.62292,-70.69097 c 8.59261,-38.88003 16.05144,-72.71597 16.57518,-75.19097 0.52374,-2.475 2.96079,-12.825 5.41567,-23 2.45488,-10.175 5.44194,-23.225 6.63791,-29 1.19598,-5.775 4.56108,-21.075 7.47802,-34 8.82776,-39.11597 11.22297,-49.87097 14.44055,-64.84103 1.69531,-7.88757 3.6378,-15.40026 4.3166,-16.69488 1.1129,-2.12244 84.7343,-59.30376 84.7343,-57.94234 0,1.17251 -32.2559,49.47825 -33.0388,49.47825 -1.2784,0 -30.6246,19.65381 -31.5976,21.16159 -1.0543,1.63382 -7.106,27.84882 -22.93244,99.33841 -3.53102,15.95 -7.56456,33.95 -8.96342,40 -1.39887,6.05 -2.92617,13.475 -3.39401,16.5 -0.91193,5.89642 -8.47031,40.19761 -10.13626,46 -2.84687,9.91552 -17.73651,79.59932 -17.13662,80.19973 0.61886,0.61941 98.65605,-29.73469 103.69915,-32.10715 2.6665,-1.25442 40.0507,-13.03301 44.4999,-14.02053 5.9077,-1.31122 118.51797,-35.52052 119.70727,-36.46801 1.1742,-0.93547 19.62141,14.06483 19.62141,15.92402 0,0.53927 -23.80368,7.79335 -43.32868,13.95956 -54.0912,17.0826 -86.1513,27.46059 -89.7839,29.06341 -1.8062,0.79693 -4.1022,1.44897 -5.1022,1.44897 -1.0001,0 -38.1279,11.475 -82.5063,25.5 -44.37841,14.025 -81.90741,25.49337 -83.39778,25.48527 -1.49036,-0.01 -3.83475,-0.5742 -5.20975,-1.2579 z M 432.8916,827.86464 c -6.05,-4.98498 -11.1381,-9.80995 -11.307,-10.72215 -0.7025,-3.79483 -11.4936,-52.65272 -14.2809,-64.65854 -1.66,-7.15 -4.8113,-20.875 -7.0028,-30.5 -2.1915,-9.625 -5.3372,-23.35 -6.9904,-30.5 -1.6532,-7.15 -4.8987,-21.21553 -7.2123,-31.25672 l -4.2066,-18.25673 -35,-42.93234 c -19.25,-23.61279 -35.678,-42.95976 -36.5067,-42.99328 -0.8286,-0.0335 -6.6053,3.3461 -12.837,7.51024 -6.2317,4.16414 -11.1787,6.91694 -10.9933,6.11734 0.1854,-0.79961 6.187,-10.27123 13.337,-21.04806 14.035,-21.15418 14.8817,-21.89446 19.8908,-17.39045 3.574,3.21359 81.6301,98.8446 82.6425,101.25 0.4629,1.1 1.9833,7.175 3.3786,13.5 1.3953,6.325 4.9943,22.3 7.9978,35.5 3.0034,13.2 7.0326,30.975 8.9538,39.5 1.9211,8.525 8.2503,36.18819 14.0647,61.47376 5.8145,25.28557 10.5718,46.75189 10.5718,47.70295 0,2.03143 -2.0577,6.83573 -2.9105,6.79544 -0.3242,-0.0153 -5.5395,-4.10647 -11.5895,-9.09146 z"
         id="path4215"
         inkscape:connector-curvature="0" />
      <path
         sodipodi:nodetypes="scccscsscsssssscscscssssssscssssccsccsscscsscsssssssssssssscsssccccsscscsssscssscscs"
         style="fill:#94c34d"
         d="m 400.64323,908.27588 c -123.226,-28.39807 -103.26472,-22.43025 -101.30382,-23.5276 2.7843,-1.55818 39.8969,-13.06107 40.6543,-12.60062 2.1943,1.33404 157.76172,35.16177 158.37772,34.4608 0.4054,-0.46134 1.9379,-19.5138 3.4055,-42.3388 1.4676,-22.825 2.8394,-43.16028 3.0484,-45.18952 0.3393,-3.29337 20.3282,-43.4531 24.1186,-48.45662 1.2876,-1.69969 1.4071,-1.54563 1.4362,1.85265 0.045,5.25621 -9.8022,147.62467 -10.4777,151.48321 -0.8584,4.90284 -5.5843,8.33238 -11.3172,8.21279 -2.5703,-0.0536 -51.1442,-10.80695 -107.942,-23.89629 z M 257.31168,873.93925 c 0,0 -31.47475,-6.01247 -49.89975,-10.18523 -29.9972,-6.79356 -33.7725,-7.86901 -36.1069,-10.28559 -1.6217,-1.67882 -4.5979,-8.1601 -7.8749,-17.14939 l -5.62514,-15.87919 4.127,-18.50141 c 2.26984,-10.17576 3.47918,-18.97215 3.94858,-19.44158 0.4714,-0.47136 6.44886,12.3741 11.63696,26.82001 7.094,19.75293 9.8842,26.36767 11.3944,27.01333 1.1,0.47026 23.2625,5.69383 49.25,11.60793 25.9875,5.9141 62.14975,12.84776 62.14975,13.24753 0,0.39978 -7.0875,2.9687 -15.75,5.70873 -23.3426,7.38349 -25.8108,8.28237 -27.25,7.04486 z M 132.60163,751.55101 c -8.7872,-24.15008 -11.0479,-31.61779 -8.3853,-27.69982 0.3826,0.56299 6.2366,7.87911 13.0089,16.25804 l 12.3132,15.23442 -2.5632,11.42635 c -1.4098,6.2845 -2.5633,11.66785 -2.5633,11.96301 0,0.29516 -0.388,0.53665 -0.8623,0.53665 -0.4743,0 -5.4009,-12.47339 -10.948,-27.71865 z m 377.2234,-4.03135 c 1.8016,-19.7413 10.6514,-154.63966 10.2188,-155.76705 -0.6131,-1.59771 -42.4849,-35.30438 -43.7871,-35.30438 -0.8932,0 -8.3845,-12.81561 -9.4973,-15.71541 -0.3951,-1.02974 0.1367,-1.4619 1.7955,-1.45891 3.3647,0.006 29.7286,4.80142 31.1607,5.66784 0.658,0.39808 10.4764,8.47533 21.8187,17.94945 14.7817,12.34696 20.8171,18.00114 21.3097,19.96372 0.3779,1.50594 -1.1896,30.22782 -3.4833,63.8264 l -5.93837,69.92717 -10.27863,18.19924 c -7.08248,12.54017 -12.50681,27.8707 -13.74821,24.26015 -0.18202,-0.52938 0.0642,-7.54603 0.42951,-11.54822 z M 120.02641,689.82454 c -11.1374,-13.78092 -20.864804,-26.26715 -21.616404,-27.74718 -0.7516,-1.48002 -9.092081,-28.7077 -15.447881,-46.3077 -12.0129,-33.26522 -13.1169,-38.02097 -9.7779,-42.12219 0.9503,-1.16721 11.4027,-9.22828 23.2277,-17.9135 11.824995,-8.68522 24.875005,-18.36867 29.000005,-21.51878 5.9122,-4.51494 9.3302,-6.27983 16.1447,-8.33651 8.4125,-2.53898 22.33563,-7.94515 22.33563,-6.89168 0,1.72667 -24.43026,33.41322 -26.73956,34.6456 -6.0868,3.2482 -40.740775,30.07366 -40.740775,31.55417 0,0.86351 9.490895,27.59457 21.090805,59.40236 11.5999,31.80779 23.42658,69.63867 23.19488,69.87037 -0.2317,0.2317 -9.5337,-10.85403 -20.6712,-24.63496 z m 72.61172,-178.1336 c 0.9494,-0.99123 1.9415,-1.58698 2.2046,-1.3239 0.263,0.26308 -0.5137,1.07408 -1.7262,1.80223 -2.1063,1.26492 -2.1277,1.24361 -0.4784,-0.47833 z m 258.15784,2.87846 c -1.9102,-0.44934 -3.96304,-3.5122 -4.12524,-3.96907 -0.1623,-0.45687 -2.946,-4.88067 -6.1859,-9.83067 -3.24,-4.95 -6.80633,-8.80229 -6.61563,-8.99714 0.2619,-0.26779 23.21262,19.68841 30.20702,25.84016 1.1829,1.04036 -8.59125,-1.94031 -13.28025,-3.04328 z m -86.30804,-52.99026 c -30.3529,-25.25033 -48.012,-39.29796 -49.0575,-39.02457 -0.8983,0.23493 -14.8825,10.25353 -31.0759,22.26357 l -43.83727,31.93795 -6.83248,1.51947 c -16.67891,3.70924 -17.29316,5.90867 -17.29316,4.78989 0,-1.70181 22.46931,-33.59002 24.93521,-34.97222 1.645,-0.92204 17.5751,-12.46056 35.4003,-25.64115 17.8252,-13.18059 33.3419,-24.46369 34.4814,-25.07356 1.1396,-0.60987 3.8372,-1.10886 5.9946,-1.10886 3.6308,0 5.7138,1.48858 27.986,20 13.2348,11 24.4969,20 25.0269,20 0.53,0 6.41502,5.42519 9.68252,10.51269 3.2676,5.0875 11.34201,18.23994 19.48651,30.77092 8.1445,12.53099 15.26353,22.93976 15.05283,23.1306 -0.2107,0.19085 -23.86676,-17.40628 -49.94996,-39.10473 z"
         id="path4211"
         inkscape:connector-curvature="0" />
      <path
         sodipodi:nodetypes="scsssssscscccsssscssssscssssccscssscscsscsccsssccsssssscsscsscscscssscscsscsccsssscc"
         style="fill:#ef6039"
         d="m 389.14182,777.35382 c -1.375,-0.21094 -12.9,-2.63519 -14.6539,-2.91796 -2.1258,-0.34276 -1.65093,-1.25432 -10.19163,-8.29015 -7.0461,-5.80465 -18.00016,-13.58067 -18.16906,-14.03913 -0.1689,-0.45846 8.71359,1.23081 9.70749,1.439 0.9939,0.20818 9.1027,1.36693 18.0195,2.57501 18.2582,2.47368 17.6817,2.59987 21.8453,-4.78118 1.3433,-2.38135 3.607,-6.39005 5.0305,-8.90823 1.4235,-2.51817 2.7388,-4.42781 2.923,-4.24363 0.1842,0.18417 1.71526,6.30876 3.4025,13.61016 l 3.0677,13.2753 -3.099,5.49113 c -1.7045,3.02012 -3.9207,5.93087 -4.925,6.46834 -1.7737,0.94926 -7.8774,1.10063 -12.9574,0.32134 z m -69.57161,-9.54625 c -5.6375,-0.83079 -14.03807,-1.33116 -14.03807,-1.72925 0,-0.3981 6.45797,-2.65188 9.72107,-4.39112 l 5.9329,-3.16224 5.8171,4.66306 c 3.1994,2.56469 6.2445,5.05 6.767,5.52291 1.247,1.12866 -1.6709,0.94303 -14.2,-0.90336 z m -61.39286,-6.7212 c -4.4,-0.65236 -9.0074,-1.52198 -10.2387,-1.9325 -2.8865,-0.96238 -60.0268,-73.06701 -59.9632,-75.43544 0.077,-2.84751 3.83671,-20.36193 4.43281,-20.36193 0.2966,0 18.14219,23.20357 34.20049,42.17857 16.0583,18.975 29.9556,35.01037 30.8828,35.63415 0.9272,0.62378 9.4598,2.14777 18.9613,3.38665 9.5015,1.23887 20.7709,2.59628 21.0306,3.01647 0.5756,0.93141 -28.024,15.01604 -29.942,14.83143 -0.7502,-0.0722 -4.9641,-0.66504 -9.3641,-1.3174 z m 168.7628,-21.15842 c -0.7893,-2.22929 -6.32372,-26.06842 -6.32372,-27.44429 0,-0.67787 14.66752,-24.37978 25.18662,-43.56549 10.5192,-19.1857 19.9466,-36.78032 20.9499,-39.09915 1.0033,-2.31882 3.6468,-6.52173 5.8743,-9.3398 2.2276,-2.81806 4.0501,-6.02637 4.0501,-7.12958 0,-1.1032 0.9563,-3.34876 2.125,-4.99012 1.1688,-1.64135 2.125,-4.05533 2.125,-5.36439 0,-1.40524 -8.2944,-15.11049 -20.2506,-33.46108 -11.1379,-17.09454 -20.07844,-34.28893 -20.07844,-34.28893 0,0 6.44759,1.19584 13.51777,2.32671 l 12.27408,1.96324 c 3.03845,4.30687 6.26974,11.17002 9.42799,16 0.6302,1.925 6.9313,12.44499 14.0025,23.37775 9.2443,14.29258 12.8567,20.72568 12.8567,22.89558 0,2.0777 -10.49,22.20914 -33.673,64.62225 -18.5201,33.88243 -34.2544,62.46963 -34.9651,63.52712 -1.0182,1.51514 -6.7022,11.0913 -7.0991,9.97018 z M 141.72935,635.5598 c -14.8933,-17.5864 -28.23545,-33.6739 -29.64928,-35.75 -3.80578,-5.58851 -2.88646,-8.56668 6.54602,-21.206 4.42816,-5.93371 8.05126,-11.29258 8.05126,-11.9086 0,-1.19371 34.96462,-46.08038 37.22272,-47.9199 1.9334,-1.57503 30.3658,-8.96629 30.3658,-7.9769 0,0.45681 -0.4786,1.12639 -1.0637,1.48796 -1.5763,0.9742 -60.52482,80.05823 -60.52482,81.18993 0,0.53254 9.2647,11.90113 20.5881,25.26352 11.3235,13.36239 20.45049,24.87769 20.74519,25.58954 l -5.09473,22.87473 c -0.085,0.38174 -12.29326,-14.05788 -27.18656,-31.64428 z M 440.30362,513.25038 c -0.55,-0.18509 -6.04365,-0.84198 -11.29002,-1.72178 l -6.75458,-1.13273 -6.72317,-8.66406 c -6.20616,-7.9978 -36.64,-54.58575 -39.3863,-60.69674 -1.2359,-2.75 -14.6911,-24.125 -29.9006,-47.5 -22.1491,-34.04023 -28.0775,-42.5 -29.7834,-42.5 -1.641,0 -10.7066,11.35997 -39.5026,49.5 -20.5551,27.225 -37.994,50.93552 -38.7532,52.69004 -0.7591,1.75452 -5.4667,8.60161 -10.4612,15.21576 l -9.58618,14.04603 -15.75515,4.35359 c -18.69617,5.16627 -18.75018,5.70932 -18.75018,5.03356 0,-1.10426 124.19751,-164.88844 127.00181,-167.50289 1.5716,-1.46515 2.6477,-2.8736 2.3914,-3.1299 -1.0119,-1.01188 4.6027,-1.64642 6.7945,-0.7679 1.283,0.51422 1.97,0.96346 1.5269,0.99832 -0.4432,0.0349 0.3162,1.07589 1.6875,2.31339 1.3713,1.2375 26.4211,39.15 55.6663,84.25 29.2451,45.1 54.637,83.575 56.4264,85.5 2.7025,2.90733 12.31176,16.11397 15.30326,21.21429 0.5285,0.90107 -2.27023,-0.65153 -4.65563,-0.70844 -1.8199,-0.0434 -4.94586,-0.60546 -5.49586,-0.79054 z"
         id="path4207"
         inkscape:connector-curvature="0" />
      <path
         sodipodi:nodetypes="sscccscscccccsssssssssssscscssssssssscscsscscscccssssscssscscscssss"
         style="fill:#d83162"
         d="m 199.52272,818.47715 c -1.1458,-0.9503 -8.7118,-9.9568 -16.8133,-20.0146 l -15.48771,-23.08502 2.6221,-11.6886 3.04063,-13.04726 c 0.1868,0.2291 8.75608,14.65768 17.13468,25.10768 8.3785,10.45 16.0129,19.5591 16.9651,20.2424 1.485,1.0656 5.5671,-0.903 28.6766,-13.8291 14.8198,-8.2893 28.0701,-16.0883 29.4451,-17.3312 2.8567,-2.582 27.6289,-16.5789 29.3585,-16.5882 0.6278,0 8.26626,-3.86309 9.77196,-4.64859 l 9.14285,8.23526 8.10172,6.7089 c -3.192,1.8485 -18.01963,9.70523 -19.41863,10.03873 -1.399,0.3335 -22.9972,12.0961 -47.996,26.1391 -47.937,26.9285 -49.7641,27.7245 -54.5436,23.7605 z m -66.0554,-80.6958 C 107.59539,704.97125 -6.1050755,563.75318 -7.2026155,563.06673 c -0.60029,-0.37545 -1.09143,-2.23111 -1.09143,-4.1237 0,-7.52481 -1.9569995,-6.77276 92.6772465,-35.61462 47.422519,-14.45304 88.922719,-27.38918 92.222719,-28.74698 7.6585,-3.15109 36.7943,-12.33208 39.1358,-12.33208 1.7502,0 8.4583,-1.9673 67.9323,-19.92246 16.5374,-4.99265 30.9374,-9.06159 32,-9.0421 1.0626,0.0195 2.8894,0.58198 4.0597,1.25 3.3438,1.90869 45.7416,45.71654 44.2269,45.69777 -0.7451,-0.009 -8.3443,-1.27821 -16.8871,-2.81994 l -15.5324,-2.80316 -9.3645,-9.68006 c -5.1506,-5.32403 -9.9802,-9.68005 -10.7325,-9.68005 -2.4768,0 -109.643,32.96935 -118.5149,36.46073 -9.2821,3.6528 -37.9865,12.53927 -40.5034,12.53927 -1.8715,0 -9.4202,2.22978 -75.318789,22.24818 -28.87441,8.77134 -53.292626,16.37267 -54.262716,16.89184 -1.474251,0.789 -1.570241,1.30642 -0.58475,3.15197 1.05092,1.96809 17.542176,22.49428 90.630605,112.80531 11.39365,14.0784 25.14205,31.3287 30.55185,38.3339 l 11.09889,13.74685 -2.6933,12.1661 c -1.4813,6.6913 -2.8199,12.3034 -2.9748,12.4713 -0.1548,0.168 -7.78179,-8.61515 -15.40549,-18.28345 z m 197.3379,2.3062 c -4.1895,-3.389 -7.4035,-6.5077 -7.1423,-6.9303 0.2612,-0.4227 7.273,-4.5124 15.5817,-9.0882 l 15.1068,-8.3197 17.5192,-19.2747 c 9.6355,-10.6012 18.36239,-19.68151 18.52009,-19.52391 0.1576,0.1576 1.46,5.3818 2.8941,11.6093 l 2.6076,11.3227 -9.41779,10.20111 c -19.37735,20.98907 -18.4167,20.6149 -32.5706,28.5885 -7.3975,4.1674 -13.9072,7.577 -14.4659,7.577 -0.5586,0 -4.4435,-2.7728 -8.6329,-6.1618 z m 79.98447,-71.55249 c -1.2645,-5.9125 -2.3455,-11.02004 -2.4022,-11.3501 -0.057,-0.33005 10.20593,-12.45581 19.96843,-23.23582 12.0152,-13.26748 17.75,-20.33237 17.75,-21.86677 0,-1.63945 -9.4793,-11.82374 -34.2525,-36.7999 -42.7985,-43.14903 -54.79969,-55.029 -54.23989,-55.57782 0.2457,-0.24083 7.8671,0.89435 16.9364,2.52261 12.3944,2.22521 16.7167,3.38203 17.4035,4.65784 0.5025,0.93355 21.94909,22.51425 42.10319,42.86425 20.9317,21.13506 37.1967,38.35765 37.9332,40.16628 1.7837,4.37998 -0.5556,9.05997 -7.5721,15.14888 -2.9692,2.57666 -14.8712,15.14734 -26.4489,27.93484 -11.5778,12.7875 -24.75727,26.85393 -24.75727,26.85393 0.25497,-0.32706 -1.15736,-5.40572 -2.42186,-11.31822 z"
         id="path4205"
         inkscape:connector-curvature="0" />
      <path
         sodipodi:nodetypes="sscssssssssssssscsssssscssssssssssccscccsscssscsssscsccs"
         style="fill:#6b3d93"
         d="m 462.18578,874.08601 c -1.0842,-0.62872 -9.7346,-7.59089 -19.223,-15.47149 -9.4884,-7.8806 -18.9513,-15.27693 -21.0286,-16.4363 l -19.7771,-16.35583 c -5.94967,-4.92042 -53.66853,-45.83191 -62.64293,-52.15825 -2.9464,-2.07702 -7.8321,-5.83661 -10.8571,-8.35465 -3.025,-2.51805 -8.37747,-6.34977 -11.4616,-9.04889 l -12.8691,-11.26258 c -4.00935,-3.50884 -12.8278,-11.68148 -20.064,-17.65759 -13.14704,-10.8578 -13.16346,-10.87671 -22.74299,-26.20805 -5.27255,-8.43833 -16.62352,-26.54827 -25.22437,-40.24433 -12.89807,-20.53895 -15.63792,-25.55183 -15.63792,-28.61138 0,-2.94707 1.64423,-6.23279 8,-15.9867 4.4,-6.75248 8,-12.63587 8,-13.07421 0,-1.32711 30.89253,-47.76299 32.34863,-48.6246 0.74469,-0.44065 9.90915,-13.62619 20.36545,-29.30119 10.4563,-15.675 19.9972,-29.37891 21.2019,-30.45314 2.3807,-2.12275 4.3806,-2.25085 18.084,-1.15831 10.403,0.82941 35.2178,5.17925 40,7.0117 3.60503,1.38134 52.73573,9.67483 84.00003,14.17959 2.475,0.35661 6.3521,1.26936 8.6157,2.02832 2.2636,0.75897 41.4136,7.93078 87,15.93736 47.4803,8.33923 83.8395,15.18211 85.1204,16.01988 3.5388,2.3145 5.577,6.11941 4.9519,9.24456 -0.3065,1.53263 -23.8456,47.31487 -52.309,101.73832 -28.4635,54.42345 -53.6256,103.22672 -55.9159,108.45172 -4.818,10.99176 -23.7895,47.19052 -26.2199,50.02897 -0.9046,1.05645 -7.5995,13.29221 -14.8777,27.19057 -7.2781,13.89836 -14.4129,26.28466 -15.855,27.5251 -2.8589,2.45914 -7.7471,2.92714 -10.9818,1.0514 z m 24.7068,-67.80417 c 11.9545,-22.82053 22.6616,-43.92371 23.7936,-46.89595 2.617,-6.87134 23.577,-46.93598 25.9464,-49.59592 2.0636,-2.31663 75.0245,-141.67332 75.0245,-143.29814 0,-0.5961 -0.3955,-1.32829 -0.879,-1.62709 -1.5336,-0.94782 -108.8034,-19.57425 -112.7981,-19.58636 -2.1026,-0.006 -9.6729,-1.09408 -16.8229,-2.41712 -37.0233,-6.85085 -45.5826,-8.50429 -46.2914,-8.94237 -1.5408,-0.95226 -36.2874,-6.69826 -37.1777,-6.14802 -1.1434,0.70669 -33.29033,-5.01419 -35.83823,-6.3778 -1.0304,-0.55143 -10.2587,-2.45539 -20.5075,-4.231 -21.273,-3.68561 -20.3982,-3.8588 -24.826,4.915 -3.1804,6.30197 -27.6438,43.32835 -29.8723,45.2129 -0.9755,0.825 -11.29267,15.83443 -22.92696,33.35429 -19.64831,29.588 -21.05661,32.00695 -19.7947,34 0.74721,1.18014 10.75612,17.14957 22.24201,35.48761 l 20.88345,33.34191 16.5547,13.6845 c 9.105,7.52647 18.56691,14.37931 20.4945,15.98639 l 16.616,13.8531 c 1.06906,0.8913 3.9731,4.12709 7.3172,6.4729 7.0842,4.96928 34.30093,27.40485 34.79253,28.68063 0.5677,1.47293 38.60464,31.58899 40.5496,33.19859 l 22.8309,18.89428 c 0,0 15.7383,14.13411 17.4539,13.81155 0.8414,-0.15818 11.044,-18.50095 23.2355,-41.77388 z"
         id="path4203"
         inkscape:connector-curvature="0" />
    </g>
    <path
       style="color:#000000;font-style:normal;font-variant:normal;font-weight:normal;font-stretch:normal;font-size:medium;line-height:normal;font-family:sans-serif;text-indent:0;text-align:start;text-decoration:none;text-decoration-line:none;text-decoration-style:solid;text-decoration-color:#000000;letter-spacing:normal;word-spacing:normal;text-transform:none;direction:ltr;block-progression:tb;writing-mode:lr-tb;baseline-shift:baseline;text-anchor:start;white-space:normal;clip-rule:nonzero;display:inline;overflow:visible;visibility:visible;opacity:1;isolation:auto;mix-blend-mode:normal;color-interpolation:sRGB;color-interpolation-filters:linearRGB;solid-color:#000000;solid-opacity:1;fill:#333333;fill-opacity:1;fill-rule:evenodd;stroke:none;stroke-width:5;stroke-linecap:butt;stroke-linejoin:miter;stroke-miterlimit:4;stroke-dasharray:none;stroke-dashoffset:0;stroke-opacity:1;color-rendering:auto;image-rendering:auto;shape-rendering:auto;text-rendering:auto;enable-background:accumulate"
       d="m 509.64818,503.85017 0,334.35937 5,0 0,-334.35937 -5,0 z"
       id="path4245"
       inkscape:connector-curvature="0" />
    <g
       style="font-style:normal;font-weight:normal;font-size:40px;line-height:125%;font-family:sans-serif;letter-spacing:0px;word-spacing:0px;fill:#000000;fill-opacity:1;stroke:none;stroke-width:1px;stroke-linecap:butt;stroke-linejoin:miter;stroke-opacity:1"
       id="text4247"
       transform="translate(-36.365492,-44.446712)">
      <g
         transform="translate(0,308.26772)"
         style="font-style:normal;font-weight:normal;font-size:40px;line-height:125%;font-family:sans-serif;letter-spacing:0px;word-spacing:0px;fill:#000000;fill-opacity:1;stroke:none;stroke-width:1px;stroke-linecap:butt;stroke-linejoin:miter;stroke-opacity:1"
         id="flowRoot4311" />
      <g
         transform="translate(0,308.26772)"
         style="font-style:normal;font-weight:normal;font-size:40px;line-height:125%;font-family:sans-serif;letter-spacing:0px;word-spacing:0px;fill:#000000;fill-opacity:1;stroke:none;stroke-width:1px;stroke-linecap:butt;stroke-linejoin:miter;stroke-opacity:1"
         id="flowRoot4319" />
      <g
         transform="translate(0,308.26772)"
         style="font-style:normal;font-weight:normal;font-size:40px;line-height:125%;font-family:sans-serif;text-align:justify;letter-spacing:0px;word-spacing:0px;text-anchor:start;fill:#000000;fill-opacity:1;stroke:none;stroke-width:1px;stroke-linecap:butt;stroke-linejoin:miter;stroke-opacity:1"
         id="flowRoot4327" />
      <g
         transform="translate(0,308.26772)"
         style="font-style:normal;font-weight:normal;font-size:40px;line-height:125%;font-family:sans-serif;letter-spacing:0px;word-spacing:0px;fill:#000000;fill-opacity:1;stroke:none;stroke-width:1px;stroke-linecap:butt;stroke-linejoin:miter;stroke-opacity:1"
         id="flowRoot4335" />
      <g
         transform="translate(0,308.26772)"
         style="font-style:normal;font-weight:normal;font-size:40px;line-height:125%;font-family:sans-serif;letter-spacing:0px;word-spacing:0px;fill:#333333;fill-opacity:1;stroke:none;stroke-width:1px;stroke-linecap:butt;stroke-linejoin:miter;stroke-opacity:1"
         id="flowRoot4356">
        <path
           d="m 626.90137,338.1533 -35,0 0,-51.03027 6.2207,0 0,45.21972 22.55859,0 0,-45.21972 6.22071,0 0,45.21972 5.22949,0 0,16.78223 -5.22949,0 0,-10.97168 z"
           style="font-style:normal;font-variant:normal;font-weight:normal;font-stretch:condensed;font-size:70px;font-family:'Niagara Solid';-inkscape-font-specification:'Niagara Solid Condensed';text-align:justify;letter-spacing:55.65000153px;text-anchor:start;fill:#333333"
           id="path4375" />
        <path
           d="m 696.49668,287.12303 29.01856,0 0,5.81054 -22.79786,0 0,15.10743 21.875,0 0,5.81054 -21.875,0 0,18.49121 23.37891,0 0,5.81055 -29.59961,0 0,-51.03027 z"
           style="font-style:normal;font-variant:normal;font-weight:normal;font-stretch:condensed;font-size:70px;font-family:'Niagara Solid';-inkscape-font-specification:'Niagara Solid Condensed';text-align:justify;letter-spacing:55.65000153px;text-anchor:start;fill:#333333"
           id="path4377" />
        <path
           d="m 791.93184,287.12303 6.2207,0 0,20.91797 22.5586,0 0,-20.91797 6.2207,0 0,51.03027 -6.2207,0 0,-24.30176 -22.5586,0 0,24.30176 -6.2207,0 0,-51.03027 z"
           style="font-style:normal;font-variant:normal;font-weight:normal;font-stretch:condensed;font-size:70px;font-family:'Niagara Solid';-inkscape-font-specification:'Niagara Solid Condensed';text-align:justify;letter-spacing:55.65000153px;text-anchor:start;fill:#333333"
           id="path4379" />
        <path
           d="m 888.70001,287.12303 38.82813,0 0,5.81054 -16.30371,0 0,45.21973 -6.22071,0 0,-45.21973 -16.30371,0 0,-5.81054 z"
           style="font-style:normal;font-variant:normal;font-weight:normal;font-stretch:condensed;font-size:70px;font-family:'Niagara Solid';-inkscape-font-specification:'Niagara Solid Condensed';text-align:justify;letter-spacing:55.65000153px;text-anchor:start;fill:#333333"
           id="path4381" />
        <path
           d="m 995.31192,292.79686 0,19.1748 7.79298,0 q 4.3408,0 6.6992,-2.49512 2.3926,-2.49511 2.3926,-7.10937 0,-4.58008 -2.3926,-7.0752 -2.3584,-2.49511 -6.6992,-2.49511 l -7.79298,0 z m -6.2207,-5.67383 14.01368,0 q 7.7246,0 11.6553,3.89648 3.9648,3.86231 3.9648,11.34766 0,7.55371 -3.9648,11.41601 -3.9307,3.86231 -11.6553,3.86231 l -7.79298,0 0,20.50781 -6.2207,0 0,-51.03027 z"
           style="font-style:normal;font-variant:normal;font-weight:normal;font-stretch:condensed;font-size:70px;font-family:'Niagara Solid';-inkscape-font-specification:'Niagara Solid Condensed';text-align:justify;letter-spacing:55.65000153px;text-anchor:start;fill:#333333"
           id="path4383" />
        <path
           d="m 591.90137,374.62303 6.2207,0 0,25.22461 22.18262,-25.22461 7.99804,0 -17.77343,20.16601 18.69629,30.86426 -6.76758,0 -15.96192,-26.28418 -8.37402,9.53613 0,16.74805 -6.2207,0 0,-51.03027 z"
           style="font-style:normal;font-variant:normal;font-weight:normal;font-stretch:condensed;font-size:70px;font-family:'Niagara Solid';-inkscape-font-specification:'Niagara Solid Condensed';text-align:justify;letter-spacing:23.62999916px;text-anchor:start;fill:#333333"
           id="path4385" />
        <path
           d="m 675.58508,381.42479 -8.44239,25.3955 16.91895,0 -8.47656,-25.3955 z m -3.52051,-6.80176 7.07519,0 17.5,51.03027 -6.45996,0 -4.2041,-13.09082 -20.71289,0 -4.16992,13.09082 -6.5625,0 17.53418,-51.03027 z"
           style="font-style:normal;font-variant:normal;font-weight:normal;font-stretch:condensed;font-size:70px;font-family:'Niagara Solid';-inkscape-font-specification:'Niagara Solid Condensed';text-align:justify;letter-spacing:23.62999916px;text-anchor:start;fill:#333333"
           id="path4387" />
        <path
           d="m 733.1555,380.29686 0,19.1748 7.79297,0 q 4.34082,0 6.69922,-2.49512 2.39258,-2.49511 2.39258,-7.10937 0,-4.58008 -2.39258,-7.0752 -2.3584,-2.49511 -6.69922,-2.49511 l -7.79297,0 z m -6.2207,-5.67383 14.01367,0 q 7.72461,0 11.65527,3.89648 3.96485,3.86231 3.96485,11.34766 0,7.55371 -3.96485,11.41601 -3.93066,3.86231 -11.65527,3.86231 l -7.79297,0 0,20.50781 -6.2207,0 0,-51.03027 z"
           style="font-style:normal;font-variant:normal;font-weight:normal;font-stretch:condensed;font-size:70px;font-family:'Niagara Solid';-inkscape-font-specification:'Niagara Solid Condensed';text-align:justify;letter-spacing:23.62999916px;text-anchor:start;fill:#333333"
           id="path4389" />
        <path
           d="m 814.58336,410.64842 q 0,-4.75098 -2.42676,-7.0752 -2.39258,-2.29004 -7.41699,-2.29004 l -9.94629,0 0,18.69629 9.94629,0 q 5.02441,0 7.41699,-2.32422 2.42676,-2.29004 2.42676,-7.00683 z m -26.01074,-36.02539 6.2207,0 0,20.98633 10.25391,0 q 7.72461,0 11.89453,3.72558 4.2041,3.72559 4.2041,11.31348 0,7.55371 -4.2041,11.27929 -4.16992,3.72559 -11.89453,3.72559 l -16.47461,0 0,-51.03027 z"
           style="font-style:normal;font-variant:normal;font-weight:normal;font-stretch:condensed;font-size:70px;font-family:'Niagara Solid';-inkscape-font-specification:'Niagara Solid Condensed';text-align:justify;letter-spacing:23.62999916px;text-anchor:start;fill:#333333"
           id="path4391" />
        <path
           d="m 855.40573,374.62303 29.01856,0 0,5.81054 -22.79786,0 0,15.10743 21.875,0 0,5.81054 -21.875,0 0,18.49121 23.37891,0 0,5.81055 -29.59961,0 0,-51.03027 z"
           style="font-style:normal;font-variant:normal;font-weight:normal;font-stretch:condensed;font-size:70px;font-family:'Niagara Solid';-inkscape-font-specification:'Niagara Solid Condensed';text-align:justify;letter-spacing:23.62999916px;text-anchor:start;fill:#333333"
           id="path4393" />
        <path
           d="m 925.0416,380.29686 0,19.1748 7.79296,0 q 4.34082,0 6.69922,-2.49512 2.39258,-2.49511 2.39258,-7.10937 0,-4.58008 -2.39258,-7.0752 -2.3584,-2.49511 -6.69922,-2.49511 l -7.79296,0 z m -6.22071,-5.67383 14.01367,0 q 7.72461,0 11.65528,3.89648 3.96484,3.86231 3.96484,11.34766 0,7.55371 -3.96484,11.41601 -3.93067,3.86231 -11.65528,3.86231 l -7.79296,0 0,20.50781 -6.22071,0 0,-51.03027 z"
           style="font-style:normal;font-variant:normal;font-weight:normal;font-stretch:condensed;font-size:70px;font-family:'Niagara Solid';-inkscape-font-specification:'Niagara Solid Condensed';text-align:justify;letter-spacing:23.62999916px;text-anchor:start;fill:#333333"
           id="path4395" />
        <path
           d="m 1006.4695,410.64842 q 0,-4.75098 -2.4268,-7.0752 -2.3926,-2.29004 -7.417,-2.29004 l -9.94629,0 0,18.69629 9.94629,0 q 5.0244,0 7.417,-2.32422 2.4268,-2.29004 2.4268,-7.00683 z m -26.01079,-36.02539 6.2207,0 0,20.98633 10.25391,0 q 7.72458,0 11.89458,3.72558 4.2041,3.72559 4.2041,11.31348 0,7.55371 -4.2041,11.27929 -4.17,3.72559 -11.89458,3.72559 l -16.47461,0 0,-51.03027 z m 37.01659,0 6.2207,0 0,51.03027 -6.2207,0 0,-51.03027 z"
           style="font-style:normal;font-variant:normal;font-weight:normal;font-stretch:condensed;font-size:70px;font-family:'Niagara Solid';-inkscape-font-specification:'Niagara Solid Condensed';text-align:justify;letter-spacing:23.62999916px;text-anchor:start;fill:#333333"
           id="path4397" />
        <path
           d="m 591.90137,463.85081 6.2207,0 0,20.91797 22.55859,0 0,-20.91797 6.22071,0 0,51.03028 -6.22071,0 0,-24.30176 -22.55859,0 0,24.30176 -6.2207,0 0,-51.03028 z"
           style="font-style:normal;font-variant:normal;font-weight:normal;font-stretch:condensed;font-size:70px;font-family:'Niagara Solid';-inkscape-font-specification:'Niagara Solid Condensed';text-align:justify;text-anchor:start;fill:#333333"
           id="path4399" />
        <path
           d="m 674.10352,463.85081 0,51.03028 -6.01563,0 0,-42.69043 -20.37109,42.69043 -8.37403,0 0,-51.03028 6.01563,0 0,42.69043 20.37109,-42.69043 8.37403,0 z"
           style="font-style:normal;font-variant:normal;font-weight:normal;font-stretch:condensed;font-size:70px;font-family:'Niagara Solid';-inkscape-font-specification:'Niagara Solid Condensed';text-align:justify;text-anchor:start;fill:#333333"
           id="path4401" />
        <path
           d="m 680.1875,463.85081 38.82812,0 0,5.81055 -16.30371,0 0,45.21973 -6.2207,0 0,-45.21973 -16.30371,0 0,-5.81055 z"
           style="font-style:normal;font-variant:normal;font-weight:normal;font-stretch:condensed;font-size:70px;font-family:'Niagara Solid';-inkscape-font-specification:'Niagara Solid Condensed';text-align:justify;text-anchor:start;fill:#333333"
           id="path4403" />
        <path
           d="m 738.9082,508.69456 q -0.64941,1.70899 -1.64062,3.00782 -2.42676,3.17871 -10.15137,3.17871 l -2.3584,0 0,-5.81055 1.91406,0 q 3.65723,0 5.09278,-0.92285 0.85449,-0.58106 1.40137,-2.0166 l 1.40136,-3.62305 -14.73144,-38.65723 6.66504,0 11.41601,29.94141 11.4502,-29.94141 6.69922,0 -17.15821,44.84375 z"
           style="font-style:normal;font-variant:normal;font-weight:normal;font-stretch:condensed;font-size:70px;font-family:'Niagara Solid';-inkscape-font-specification:'Niagara Solid Condensed';text-align:justify;text-anchor:start;fill:#333333"
           id="path4405" />
        <path
           d="m 792.0918,467.13206 -1.67481,13.43262 -2.22168,0 -1.70898,-13.43262 0,-1.26464 5.60547,0 0,1.26464 z m -7.55371,0 -1.67481,13.43262 -2.25586,0 -1.6748,-13.43262 0,-1.26464 5.60547,0 0,1.26464 z"
           style="font-style:normal;font-variant:normal;font-weight:normal;font-stretch:condensed;font-size:70px;font-family:'Niagara Solid';-inkscape-font-specification:'Niagara Solid Condensed';text-align:justify;text-anchor:start;fill:#333333"
           id="path4407" />
        <path
           d="m 800.12402,463.85081 9.2627,0 11.72363,34.72657 11.75781,-34.72657 9.2627,0 0,51.03028 -6.04981,0 0,-44.80957 -11.86035,35 -6.2207,0 -11.86035,-35 0,44.80957 -6.01563,0 0,-51.03028 z"
           style="font-style:normal;font-variant:normal;font-weight:normal;font-stretch:condensed;font-size:70px;font-family:'Niagara Solid';-inkscape-font-specification:'Niagara Solid Condensed';text-align:justify;text-anchor:start;fill:#333333"
           id="path4409" />
        <path
           d="m 889.29883,463.85081 0,51.03028 -6.01563,0 0,-42.69043 -20.37109,42.69043 -8.37402,0 0,-51.03028 6.01562,0 0,42.69043 20.37109,-42.69043 8.37403,0 z"
           style="font-style:normal;font-variant:normal;font-weight:normal;font-stretch:condensed;font-size:70px;font-family:'Niagara Solid';-inkscape-font-specification:'Niagara Solid Condensed';text-align:justify;text-anchor:start;fill:#333333"
           id="path4411" />
        <path
           d="m 936.09082,467.78148 0,7.28027 q -3.14453,-3.24707 -6.69922,-4.85351 -3.55469,-1.60645 -7.55371,-1.60645 -7.86133,0 -12.06543,5.36621 -4.16992,5.33203 -4.16992,15.44922 0,10.08301 4.16992,15.44922 4.2041,5.33203 12.06543,5.33203 3.99902,0 7.55371,-1.60645 3.55469,-1.60644 6.69922,-4.85351 l 0,7.21191 q -3.24707,2.46094 -6.9043,3.69141 -3.65722,1.23047 -7.69043,1.23047 -10.45898,0 -16.44043,-7.0752 -5.98144,-7.10937 -5.98144,-19.37988 0,-12.30469 5.98144,-19.37988 5.98145,-7.10938 16.44043,-7.10938 4.10157,0 7.75879,1.23047 3.65723,1.19629 6.83594,3.62305 z"
           style="font-style:normal;font-variant:normal;font-weight:normal;font-stretch:condensed;font-size:70px;font-family:'Niagara Solid';-inkscape-font-specification:'Niagara Solid Condensed';text-align:justify;text-anchor:start;fill:#333333"
           id="path4413" />
        <path
           d="m 974.74805,476.59984 0,38.28125 -5.60547,0 0,-30.72754 -16.61133,30.72754 -7.28027,0 0,-38.28125 5.63964,0 0,30.65918 16.57715,-30.65918 7.28028,0 z"
           style="font-style:normal;font-variant:normal;font-weight:normal;font-stretch:condensed;font-size:70px;font-family:'Niagara Solid';-inkscape-font-specification:'Niagara Solid Condensed';text-align:justify;text-anchor:start;fill:#333333"
           id="path4415" />
        <path
           d="m 1020.9932,467.78148 0,7.28027 q -3.1446,-3.24707 -6.6993,-4.85351 -3.5546,-1.60645 -7.5537,-1.60645 -7.86129,0 -12.0654,5.36621 -4.16992,5.33203 -4.16992,15.44922 0,10.08301 4.16992,15.44922 4.20411,5.33203 12.0654,5.33203 3.9991,0 7.5537,-1.60645 3.5547,-1.60644 6.6993,-4.85351 l 0,7.21191 q -3.2471,2.46094 -6.9043,3.69141 -3.6573,1.23047 -7.6905,1.23047 -10.45895,0 -16.44039,-7.0752 -5.98145,-7.10937 -5.98145,-19.37988 0,-12.30469 5.98145,-19.37988 5.98144,-7.10938 16.44039,-7.10938 4.1016,0 7.7588,1.23047 3.6573,1.19629 6.836,3.62305 z"
           style="font-style:normal;font-variant:normal;font-weight:normal;font-stretch:condensed;font-size:70px;font-family:'Niagara Solid';-inkscape-font-specification:'Niagara Solid Condensed';text-align:justify;text-anchor:start;fill:#333333"
           id="path4417" />
        <path
           d="m 1039.416,467.13206 -1.6748,13.43262 -2.2217,0 -1.709,-13.43262 0,-1.26464 5.6055,0 0,1.26464 z m -7.5537,0 -1.6748,13.43262 -2.2559,0 -1.6748,-13.43262 0,-1.26464 5.6055,0 0,1.26464 z"
           style="font-style:normal;font-variant:normal;font-weight:normal;font-stretch:condensed;font-size:70px;font-family:'Niagara Solid';-inkscape-font-specification:'Niagara Solid Condensed';text-align:justify;text-anchor:start;fill:#333333"
           id="path4419" />
      </g>
    </g>
  </g>
</svg>
