<?xml version="1.0" encoding="utf-8"?>
<!-- Generator: Adobe Illustrator 16.0.0, SVG Export Plug-In . SVG Version: 6.00 Build 0)  -->
<!DOCTYPE svg PUBLIC "-//W3C//DTD SVG 1.1//EN" "http://www.w3.org/Graphics/SVG/1.1/DTD/svg11.dtd">
<svg version="1.1" id="Layer_1" xmlns="http://www.w3.org/2000/svg" xmlns:xlink="http://www.w3.org/1999/xlink" x="0px" y="0px"
	 width="306px" height="252px" viewBox="0 0 306 252" enable-background="new 0 0 306 252" xml:space="preserve">
<g>
	<g>
		<circle fill="#000000" cx="97.402" cy="9.897" r="2.26"/>
		<circle fill="#000000" cx="106.472" cy="16.057" r="1.234"/>
		<path fill="#000000" d="M182.874,5.993c1.022,0,1.853,0.828,1.853,1.85s-0.828,1.851-1.853,1.851
			c-1.021,0-1.849-0.828-1.849-1.851C181.025,6.821,181.855,5.993,182.874,5.993z"/>
		<circle fill="#000000" cx="215.546" cy="4.765" r="1.232"/>
		<circle fill="#000000" cx="263.417" cy="10.309" r="4.314"/>
		<path fill="#000000" d="M276.774,10.921c0.906,0,1.643,0.736,1.643,1.644s-0.736,1.645-1.643,1.645
			c-0.91,0-1.646-0.736-1.646-1.645C275.13,11.657,275.864,10.921,276.774,10.921z"/>
		<circle fill="#000000" cx="266.294" cy="24.271" r="1.438"/>
		<circle fill="#000000" cx="300.606" cy="23.245" r="3.698"/>
		<circle fill="#000000" cx="70.69" cy="114.209" r="2.259"/>
		<circle fill="#000000" cx="131.507" cy="114.624" r="3.494"/>
		<circle fill="#000000" cx="119.455" cy="220.333" r="2.875"/>
		<circle fill="#000000" cx="146.917" cy="123.863" r="1.234"/>
		<circle fill="#000000" cx="44.212" cy="36.386" r="5.343"/>
		<circle fill="#000000" cx="234.036" cy="143.579" r="1.231"/>
		<circle fill="#000000" cx="226.846" cy="122.015" r="1.85"/>
		<circle fill="#000000" cx="262.185" cy="108.462" r="2.672"/>
		<circle fill="#000000" cx="265.063" cy="145.838" r="1.438"/>
		<circle fill="#000000" cx="101.114" cy="120.165" r="3.493"/>
		<circle fill="#000000" cx="193.438" cy="217.334" r="1.438"/>
		<circle fill="#000000" cx="31.241" cy="131.048" r="2.67"/>
		<circle fill="#000000" cx="20.967" cy="102.714" r="1.026"/>
		<circle fill="#000000" cx="8.023" cy="134.131" r="3.7"/>
		<circle fill="#000000" cx="29.801" cy="154.665" r="2.053"/>
		<circle fill="#000000" cx="66.788" cy="221.976" r="1.643"/>
		<path fill="#000000" d="M56.926,79.772c-1.374,2.342-2.686,4.68-3.938,7.02c-1.252,2.342-2.563,4.68-3.935,7.021
			c-3.554-0.163-7.372-0.483-11.446-0.968c-4.078-0.485-8.156-1.09-12.232-1.815c-4.08-0.725-8.016-1.553-11.808-2.48
			c-3.797-0.928-7.146-1.918-10.055-2.964c-0.483-1.856-0.95-4.178-1.392-6.962c-0.444-2.784-0.828-5.826-1.15-9.136
			c-0.323-3.309-0.565-6.796-0.726-10.471C0.08,55.339,0,51.688,0,48.055c0-5.729,0.22-11.154,0.666-16.278
			c0.444-5.124,1.19-9.383,2.24-12.774c2.1-1.128,4.18-2.258,6.237-3.388c2.059-1.126,4.137-2.258,6.238-3.389
			c1.532-2.016,3.046-4.035,4.542-6.052C21.415,4.158,22.931,2.1,24.465,0c2.582,0.728,5.37,1.354,8.356,1.876
			c2.985,0.526,6.055,0.968,9.207,1.332c3.147,0.364,6.296,0.686,9.447,0.968C54.623,4.46,57.61,4.64,60.438,4.72
			c-1.213,2.584-2.425,5.124-3.635,7.624c-1.21,2.5-2.462,5.004-3.756,7.506c-2.584-0.079-5.37-0.22-8.355-0.426
			c-2.99-0.2-5.996-0.502-9.023-0.906c-3.028-0.401-5.976-0.867-8.842-1.392c-2.868-0.523-5.433-1.15-7.692-1.876
			c-0.563,4.278-0.968,8.816-1.21,13.618c-0.244,4.8-0.364,9.621-0.364,14.463c0,6.376,0.202,12.346,0.606,17.916
			c0.404,5.565,1.048,9.926,1.938,13.072c0.321,0.159,0.745,0.321,1.271,0.481c0.526,0.164,0.988,0.324,1.395,0.484
			c-0.566-4.678-1.013-9.784-1.334-15.313c-0.322-5.525-0.484-11.153-0.484-16.884c0-4.118,0.102-8.109,0.304-11.982
			c0.2-3.874,0.502-7.584,0.908-11.137c0.402-0.16,0.826-0.38,1.27-0.666c0.444-0.281,0.868-0.502,1.272-0.664
			c-0.646,3.631-1.148,8.011-1.512,13.135c-0.364,5.123-0.544,10.467-0.544,16.036c0,5.166,0.138,10.19,0.424,15.07
			c0.28,4.882,0.744,9.221,1.392,13.014c4.603,0.967,9.828,1.778,15.684,2.418C46.004,78.964,51.598,79.45,56.926,79.772z"/>
		<path fill="#000000" d="M72.342,25.181c3.393,0,7.044,0.181,10.962,0.542c3.914,0.366,7.771,0.87,11.566,1.515
			c3.794,0.646,7.406,1.434,10.84,2.361c3.432,0.929,6.398,1.958,8.902,3.086c-0.242,2.261-0.444,4.864-0.606,7.808
			c-0.162,2.944-0.302,6.05-0.424,9.317c-0.122,3.271-0.222,6.641-0.302,10.108c-0.082,3.47-0.122,6.862-0.122,10.168
			c0,2.101,0.02,4.136,0.06,6.114c0.042,1.979,0.101,3.854,0.183,5.628c0.563,0.647,1.411,1.412,2.541,2.302
			c1.13,0.886,2.302,1.532,3.514,1.934c-1.696,1.293-3.352,2.584-4.965,3.875c-1.618,1.291-3.271,2.582-4.966,3.875
			c-4.683-2.02-8.719-4.922-12.11-8.714c-1.376,1.532-2.666,2.986-3.876,4.356c-1.21,1.374-2.504,2.824-3.876,4.36
			c-2.183-0.242-4.462-0.566-6.844-0.969c-2.383-0.403-4.744-0.907-7.086-1.514c-2.345-0.606-4.522-1.288-6.542-2.056
			c-2.021-0.769-3.755-1.592-5.208-2.482c-0.242-1.128-0.425-2.46-0.544-3.994c-0.12-1.534-0.183-3.147-0.183-4.842
			c0-2.824,0.14-5.668,0.424-8.534c0.282-2.864,0.706-5.266,1.272-7.204c1.696-0.726,3.392-1.454,5.086-2.178
			c1.698-0.728,3.432-1.454,5.208-2.18c0.806-0.727,1.616-1.454,2.422-2.181c0.806-0.726,1.654-1.452,2.544-2.18
			c1.614-0.481,3.308-0.926,5.086-1.33c1.776-0.401,3.552-0.804,5.328-1.21c1.374,0.082,2.624,0.164,3.756,0.244
			c1.128,0.08,2.138,0.162,3.03,0.242c0-1.696-0.022-3.469-0.061-5.328c-0.042-1.856-0.104-3.268-0.184-4.236
			c-3.714-1.29-8.398-2.216-14.048-2.783c-5.654-0.564-11.708-0.889-18.168-0.969c1.292-2.179,2.542-4.337,3.754-6.475
			C69.92,29.519,71.13,27.359,72.342,25.181z M79.972,61.01c-0.239,1.614-0.363,3.834-0.363,6.656c0,2.178,0.08,4.4,0.241,6.658
			c0.162,2.258,0.366,4.116,0.608,5.567c0.968,0.404,2.158,0.769,3.572,1.09c1.412,0.322,2.886,0.604,4.42,0.847
			c1.534,0.243,3.03,0.446,4.481,0.605c1.454,0.164,2.744,0.322,3.876,0.484c0.162-1.454,0.303-4.014,0.425-7.686
			c0.124-3.675,0.222-7.769,0.302-12.288c-0.968-0.24-2.18-0.462-3.632-0.666c-1.454-0.202-3.011-0.402-4.662-0.606
			c-1.656-0.202-3.292-0.362-4.906-0.483C82.716,61.068,81.264,61.01,79.972,61.01z"/>
		<path fill="#000000" d="M175.064,79.772c-2.104,0.968-4.183,1.936-6.238,2.903c-2.061,0.968-4.141,1.938-6.238,2.906
			c-1.131,1.374-2.262,2.722-3.389,4.054c-1.133,1.332-2.266,2.683-3.391,4.055c-4.445-1.374-9.25-2.482-14.417-3.33
			c-5.168-0.847-10.414-1.471-15.743-1.876c1.371-2.099,2.705-4.214,3.995-6.356c1.292-2.136,2.624-4.296,3.998-6.474
			c4.36,0.403,8.92,1.069,13.687,1.996c4.764,0.93,8.922,1.958,12.473,3.088c0.164-1.456,0.285-3.106,0.367-4.964
			c0.078-1.856,0.121-3.591,0.121-5.206c0-1.452-0.021-2.862-0.059-4.236c-0.043-1.374-0.144-2.5-0.304-3.388
			c-1.131-0.645-2.586-1.17-4.36-1.574c-1.778-0.402-3.312-0.684-4.604-0.848c-1.13,1.617-2.3,3.189-3.512,4.722
			c-1.212,1.533-2.382,3.105-3.512,4.718c-3.068-0.322-6.2-0.948-9.387-1.876c-3.191-0.926-5.836-2.074-7.934-3.448
			c-0.242-1.13-0.384-2.826-0.424-5.084c-0.042-2.258-0.061-4.602-0.061-7.021c0-2.258,0.04-4.54,0.122-6.838
			c0.078-2.303,0.242-4.418,0.484-6.356c2.1-0.886,4.178-1.775,6.235-2.663c2.061-0.886,4.139-1.773,6.238-2.664
			c0.886-1.454,1.776-2.924,2.666-4.416c0.886-1.494,1.774-2.966,2.664-4.418c4.764,1.13,9.771,2.138,15.021,3.026
			c5.248,0.888,10.334,1.572,15.26,2.058c-1.129,2.179-2.24,4.378-3.33,6.597c-1.09,2.221-2.201,4.419-3.33,6.597
			c-4.363-0.404-8.863-0.988-13.506-1.754c-4.645-0.769-8.902-1.794-12.778-3.088c-0.164,1.374-0.264,2.985-0.302,4.842
			c-0.042,1.857-0.063,3.55-0.063,5.084c0,1.372,0.042,2.724,0.122,4.056c0.08,1.33,0.202,2.601,0.364,3.811
			c0.97,0.646,2.38,1.13,4.24,1.454c1.857,0.321,3.39,0.563,4.602,0.726c1.212-1.534,2.424-3.044,3.634-4.54
			c1.211-1.496,2.424-3.044,3.637-4.66c1.371,0.162,2.863,0.404,4.479,0.725c1.615,0.323,3.189,0.708,4.723,1.151
			c1.533,0.444,2.986,0.948,4.361,1.513c1.375,0.563,2.543,1.13,3.512,1.695c0.162,1.208,0.281,2.887,0.363,5.024
			c0.082,2.137,0.123,4.458,0.123,6.958c0,2.342-0.041,4.662-0.123,6.96C175.464,75.716,175.305,77.834,175.064,79.772z"/>
		<path fill="#000000" d="M223.169,81.828c-1.86,2.018-3.676,4.036-5.451,6.052c-1.776,2.018-3.594,3.994-5.45,5.932
			c-2.183-0.323-4.523-0.789-7.025-1.392c-2.504-0.606-4.965-1.332-7.387-2.178c-2.424-0.851-4.746-1.796-6.965-2.847
			c-2.222-1.046-4.14-2.218-5.755-3.51c0.242-0.968,0.464-2.682,0.669-5.146c0.198-2.46,0.362-5.345,0.483-8.654
			c0.121-3.306,0.219-6.918,0.301-10.832c0.08-3.914,0.121-7.806,0.121-11.68v-6.66h-7.388l7.269-10.529
			c-0.161-2.906-0.323-5.527-0.481-7.87c-0.164-2.34-0.324-4.116-0.484-5.325c3.066-1.375,6.133-2.784,9.205-4.236
			c3.064-1.454,6.135-2.904,9.205-4.358c-0.082,0.968-0.182,2.179-0.301,3.63c-0.121,1.452-0.224,3.047-0.303,4.784
			c-0.082,1.736-0.164,3.55-0.24,5.446c-0.082,1.896-0.164,3.812-0.246,5.75h19.504c-0.242,2.098-0.467,4.216-0.668,6.355
			c-0.203,2.139-0.422,4.256-0.668,6.354h-18.406c-0.082,2.986-0.125,5.912-0.125,8.778c0,2.863,0,5.588,0,8.17
			c0,4.038,0.02,7.544,0.063,10.531c0.037,2.986,0.142,5.286,0.301,6.898c0.806,0.729,1.957,1.436,3.453,2.12
			c1.492,0.686,3.168,1.312,5.027,1.876c1.855,0.568,3.793,1.072,5.813,1.516C219.251,81.242,221.23,81.586,223.169,81.828z"/>
		<path fill="#000000" d="M251.581,86.063c-2.02,1.377-4.02,2.687-5.996,3.935c-1.979,1.25-3.938,2.522-5.873,3.813
			c-1.941-0.968-3.816-2.058-5.633-3.268c-1.818-1.212-3.617-2.786-5.39-4.722c0.404-0.804,0.765-2.28,1.088-4.418
			c0.325-2.136,0.587-4.679,0.792-7.624c0.201-2.946,0.342-6.174,0.422-9.685c0.08-3.512,0.123-7.082,0.123-10.712
			c0-5.567-0.021-10.934-0.063-16.099c-0.041-5.164-0.139-9.986-0.299-14.464c-0.164-4.479-0.364-8.552-0.604-12.225
			c-0.245-3.672-0.565-6.796-0.973-9.382c0.324-0.242,0.646-0.441,0.973-0.604c0.316-0.162,0.642-0.364,0.965-0.608
			c0.32,1.858,0.586,3.614,0.787,5.269c0.201,1.653,0.381,3.248,0.545,4.781c2.582-1.613,5.209-3.27,7.873-4.962
			c2.664-1.696,5.291-3.39,7.873-5.086c-0.16,3.63-0.319,8.092-0.483,13.376c-0.16,5.284-0.302,10.876-0.422,16.764
			c-0.123,5.893-0.224,11.802-0.304,17.733c-0.082,5.932-0.123,11.36-0.123,16.282c0,1.614,0,3.268,0,4.962
			c0,1.694,0.021,3.348,0.062,4.96c0.041,1.618,0.078,3.147,0.123,4.602c0.039,1.452,0.099,2.704,0.181,3.753
			c0.565,0.806,1.215,1.493,1.94,2.056C249.884,85.054,250.692,85.582,251.581,86.063z"/>
		<path fill="#000000" d="M288.196,63.55c-1.779,0.404-4.021,0.687-6.723,0.848c-2.707,0.162-5.191,0.322-7.449,0.482
			c0.16,2.1,0.319,4.098,0.481,5.994c0.16,1.896,0.32,3.689,0.483,5.384c1.775,0.648,3.916,1.274,6.421,1.876
			c2.502,0.604,5.125,1.148,7.875,1.635c2.741,0.483,5.467,0.928,8.172,1.329c2.707,0.404,5.151,0.687,7.328,0.849
			c-1.695,2.018-3.435,4.016-5.207,5.992c-1.777,1.978-3.556,3.934-5.33,5.871c-2.664-0.241-5.533-0.626-8.601-1.151
			c-3.067-0.524-6.158-1.168-9.266-1.937c-3.109-0.766-6.137-1.611-9.086-2.542c-2.945-0.926-5.59-1.916-7.934-2.962
			c-0.563-2.422-1.008-5.752-1.328-9.985c-0.324-4.238-0.488-8.778-0.488-13.62c0-3.874,0.123-7.666,0.365-11.378
			c0.244-3.708,0.686-7.059,1.334-10.046c2.098-1.047,4.238-2.057,6.418-3.025c2.18-0.97,4.363-1.976,6.543-3.026
			c1.371-1.454,2.762-2.926,4.176-4.418c1.414-1.492,2.805-3.006,4.182-4.54c3.795,1.21,7.912,2.32,12.354,3.328
			c4.44,1.01,8.64,1.836,12.599,2.48c0.159,1.21,0.28,2.604,0.362,4.176c0.078,1.574,0.121,3.207,0.121,4.903
			c0,2.661-0.121,5.346-0.363,8.048c-0.241,2.706-0.646,4.981-1.211,6.838c-1.45,0.566-2.846,1.092-4.178,1.574
			c-1.332,0.483-2.646,1.05-3.937,1.695c-1.293,0.646-2.604,1.393-3.94,2.238C291.04,61.312,289.647,62.34,288.196,63.55z
			 M274.142,37.163c-0.16,2.261-0.301,4.599-0.422,7.019c-0.123,2.423-0.184,4.927-0.184,7.507v3.146
			c1.211,0.244,2.563,0.466,4.059,0.666c1.492,0.204,2.986,0.386,4.479,0.546c1.495,0.16,2.946,0.302,4.36,0.422
			c1.412,0.122,2.688,0.183,3.816,0.183c0.16-1.128,0.32-2.438,0.484-3.935c0.16-1.492,0.238-3.044,0.238-4.66
			c0-3.226-0.238-5.932-0.724-8.109c-2.586-0.244-5.271-0.606-8.056-1.09C279.413,38.372,276.728,37.809,274.142,37.163z"/>
		<path fill="#000000" d="M101.11,222.374c-3.07,1.61-6.076,3.164-9.024,4.66c-2.95,1.491-5.956,3.041-9.024,4.657
			c0.16-2.504,0.303-5.248,0.425-8.231s0.241-6.069,0.363-9.258s0.223-6.375,0.303-9.563c0.08-3.188,0.162-6.313,0.241-9.379
			c-1.374,1.613-2.745,3.207-4.117,4.777c-1.376,1.578-2.746,3.127-4.12,4.664c-1.858-0.242-3.977-0.648-6.358-1.209
			c-2.382-0.568-4.786-1.232-7.208-1.998c-2.422-0.766-4.744-1.617-6.964-2.543c-2.222-0.926-4.1-1.875-5.632-2.844
			c-0.08-3.063-0.222-6.676-0.424-10.832c-0.202-4.156-0.301-8.492-0.301-13.012c0-3.634,0.12-7.185,0.362-10.652
			c0.244-3.469,0.687-6.738,1.334-9.805c2.18-0.89,4.36-1.754,6.54-2.603c2.18-0.853,4.362-1.718,6.542-2.603
			c1.21-1.777,2.442-3.533,3.694-5.27c1.252-1.734,2.483-3.49,3.693-5.266c2.021,0.242,4.402,0.711,7.148,1.395
			c2.744,0.684,5.53,1.451,8.356,2.295c2.825,0.85,5.491,1.775,7.993,2.787c2.502,1.008,4.563,1.996,6.179,2.963
			c-0.162,1.455-0.284,3.451-0.364,5.992c-0.082,2.541-0.14,5.428-0.182,8.656c-0.042,3.228-0.082,6.717-0.122,10.467
			c-0.042,3.754-0.061,7.566-0.061,11.441c0,4.039,0.021,8.03,0.061,11.979c0.04,3.959,0.08,7.728,0.122,11.319
			c0.042,3.591,0.1,6.841,0.182,9.742C100.826,218.016,100.948,220.438,101.11,222.374z M83.91,153.255
			c-1.21-0.563-2.584-1.11-4.118-1.635c-1.536-0.522-3.13-0.988-4.786-1.392c-1.656-0.399-3.292-0.744-4.906-1.026
			c-1.615-0.283-3.067-0.505-4.359-0.668c-0.162,2.098-0.284,4.297-0.364,6.598c-0.08,2.298-0.122,4.623-0.122,6.959
			c0,2.906,0.042,5.729,0.122,8.472c0.08,2.746,0.182,5.289,0.302,7.629c0.12,2.336,0.282,4.438,0.484,6.293
			c0.202,1.856,0.424,3.348,0.666,4.477c1.048,0.566,2.3,1.086,3.756,1.574c1.454,0.482,2.986,0.906,4.602,1.27
			c1.616,0.365,3.229,0.689,4.847,0.969c1.613,0.285,3.065,0.504,4.359,0.664c0.08-2.096,0.122-4.332,0.122-6.715
			c0-2.379,0-4.781,0-7.203c0-5.647-0.06-10.813-0.182-15.492C84.212,159.35,84.072,155.757,83.91,153.255z"/>
		<path fill="#000000" d="M170.968,197.072c-1.694,1.293-3.409,2.564-5.146,3.814s-3.492,2.52-5.268,3.813
			c-2.021-0.969-4.16-2.361-6.423-4.176c-2.261-1.816-4.077-3.652-5.451-5.51c-1.535,1.614-3.027,3.229-4.479,4.842
			c-1.454,1.617-2.95,3.227-4.482,4.844c-4.844-0.809-9.647-1.857-14.412-3.148c-4.766-1.291-9.084-3.105-12.959-5.445
			c0.322-1.373,0.624-3.028,0.91-4.965c0.282-1.934,0.484-4.053,0.606-6.352c0.12-2.301,0.22-4.703,0.302-7.205
			c0.078-2.502,0.12-5.002,0.12-7.504c0-3.955-0.042-7.709-0.12-11.258c-0.082-3.553-0.244-7.143-0.484-10.775
			c-0.647-0.883-1.456-1.711-2.424-2.479c-0.968-0.769-1.978-1.396-3.027-1.877l10.898-7.625c2.101,0.887,4.218,1.996,6.36,3.328
			c2.138,1.332,4.096,2.805,5.876,4.418c-0.164,1.211-0.324,2.805-0.486,4.783c-0.162,1.977-0.284,4.178-0.364,6.596
			c-0.079,2.422-0.14,4.983-0.182,7.69c-0.042,2.703-0.06,5.382-0.06,8.046c0,3.713,0.042,7.186,0.124,10.409
			c0.077,3.229,0.199,5.649,0.361,7.265c1.94,0.969,4.502,1.776,7.692,2.422c3.189,0.646,6.315,1.086,9.386,1.332
			c0.404-2.504,0.708-5.828,0.908-9.988c0.202-4.152,0.304-8.535,0.304-13.131c0-4.439-0.021-8.596-0.06-12.467
			c-0.042-3.875-0.143-6.98-0.304-9.324c-0.404-0.801-0.809-1.469-1.211-1.996c-0.405-0.523-0.848-1.029-1.332-1.512
			c1.776-1.293,3.551-2.582,5.328-3.875c1.778-1.289,3.555-2.621,5.333-3.994c1.695,0.971,3.488,2.076,5.387,3.326
			c1.896,1.256,3.734,2.848,5.513,4.783c-0.406,0.646-0.75,1.76-1.031,3.327c-0.284,1.576-0.543,3.472-0.784,5.692
			c-0.246,2.22-0.427,4.656-0.548,7.32c-0.121,2.668-0.182,5.449-0.182,8.355v7.381c0,2.986,0.02,5.873,0.061,8.656
			s0.142,5.264,0.302,7.443c0.563,0.887,1.332,1.735,2.303,2.543C168.792,195.706,169.837,196.43,170.968,197.072z"/>
		<path fill="#000000" d="M214.581,162.574c-0.404,0.162-0.806,0.347-1.211,0.546c-0.402,0.2-0.808,0.381-1.209,0.545
			c-0.164-1.05-0.484-2.201-0.968-3.451c-0.483-1.254-1.051-2.481-1.696-3.694c-0.647-1.211-1.354-2.361-2.123-3.449
			c-0.767-1.09-1.552-1.957-2.36-2.605c1.131-0.641,2.141-1.289,3.028-1.938c0.728,0.891,1.414,1.922,2.06,3.09
			c0.645,1.172,1.254,2.402,1.815,3.691c0.563,1.293,1.09,2.563,1.574,3.813C213.977,160.378,214.339,161.525,214.581,162.574z
			 M208.042,148.534c1.209-2.099,2.44-4.177,3.692-6.234c1.252-2.055,2.482-4.133,3.693-6.231c3.23,0,6.561,0.143,9.992,0.424
			c3.434,0.289,6.819,0.625,10.172,1.031c3.354,0.401,6.604,0.926,9.752,1.569c3.148,0.646,6.056,1.335,8.72,2.06
			c0.078,0.565,0.125,1.147,0.125,1.756c0,0.605,0,1.229,0,1.877c0,1.695-0.146,3.531-0.429,5.508
			c-0.282,1.977-0.663,3.973-1.149,5.992c-0.484,2.02-1.07,3.975-1.754,5.871c-0.688,1.895-1.437,3.531-2.242,4.898
			c-1.375,0.729-2.707,1.477-3.996,2.241c-1.291,0.771-2.623,1.513-3.996,2.238c2.664,0.646,5.246,1.354,7.75,2.118
			c2.504,0.769,4.766,1.597,6.783,2.482c0,1.291,0.021,2.641,0.061,4.051c0.041,1.418,0.063,2.892,0.063,4.422
			c0,2.418-0.022,4.963-0.063,7.625c-0.041,2.664-0.102,5.324-0.18,7.988c-0.082,2.664-0.205,5.205-0.365,7.625
			c-0.164,2.42-0.406,4.602-0.725,6.539c-2.104,1.047-4.201,2.096-6.299,3.145c-2.104,1.05-4.201,2.099-6.299,3.146
			c-1.134,1.857-2.281,3.709-3.451,5.568c-1.174,1.855-2.322,3.709-3.455,5.568c-4.685-0.406-9.427-1.133-14.229-2.185
			c-4.803-1.045-9.143-2.338-13.02-3.869c-0.484-2.424-0.728-5.448-0.728-9.079c0-1.859,0.063-3.773,0.185-5.75
			c0.121-1.976,0.32-3.873,0.604-5.689c0.283-1.815,0.623-3.532,1.033-5.145c0.402-1.611,0.926-3.025,1.574-4.234
			c2.098-1.373,4.195-2.687,6.297-3.937c2.098-1.25,4.199-2.521,6.297-3.812c-0.648,2.099-1.09,4.66-1.332,7.685
			c-0.242,3.029-0.365,6.033-0.365,9.021c0,1.773,0.021,3.529,0.061,5.265s0.142,3.289,0.302,4.659
			c2.586,0.888,5.491,1.552,8.721,1.998c3.227,0.443,6.375,0.826,9.445,1.15c0.082-1.777,0.164-3.795,0.242-6.053
			c0.082-2.262,0.123-4.6,0.123-7.02c0-3.392-0.104-6.717-0.305-9.986c-0.201-3.27-0.423-5.912-0.662-7.93
			c-1.859-0.646-3.938-1.289-6.238-1.938c-2.301-0.646-4.685-1.271-7.144-1.875c-2.465-0.604-4.967-1.129-7.512-1.573
			c-2.541-0.443-4.947-0.789-7.207-1.029c1.859-1.857,3.734-3.752,5.633-5.689c1.895-1.938,3.771-3.832,5.629-5.688
			c2.18,0.082,4.441,0.221,6.781,0.422c2.342,0.203,4.685,0.508,7.026,0.906c0.482-2.261,0.865-4.617,1.146-7.078
			c0.285-2.461,0.428-4.742,0.428-6.84c0-0.563-0.021-1.09-0.061-1.574c-0.043-0.484-0.059-0.969-0.059-1.453
			c-1.537-0.645-3.437-1.25-5.695-1.816c-2.263-0.563-4.705-1.047-7.324-1.453c-2.627-0.4-5.312-0.744-8.058-1.027
			C213.292,148.919,210.624,148.697,208.042,148.534z"/>
		<path fill="#000000" d="M172.55,8.609c-0.766-0.135-1.495,0.376-1.633,1.142c-0.097,0.558,0.149,1.094,0.592,1.397
			c-1.409,1.694-3.646,2.614-5.971,2.205c-2.55-0.45-4.472-2.364-5.06-4.725c-0.035-0.148-0.059-0.294-0.086-0.446
			c0.609-0.062,1.129-0.516,1.242-1.147c0.137-0.767-0.377-1.498-1.141-1.632c-0.77-0.132-1.498,0.378-1.633,1.14
			c-0.113,0.636,0.221,1.238,0.772,1.508c-0.077,0.13-0.151,0.26-0.235,0.389c-1.361,2.018-3.818,3.161-6.369,2.709
			c-2.326-0.409-4.116-2.039-4.86-4.111c0.517-0.132,0.935-0.552,1.032-1.114c0.134-0.768-0.378-1.498-1.145-1.63
			c-0.766-0.136-1.493,0.376-1.628,1.142c-0.134,0.767,0.376,1.494,1.141,1.63c0.01,0,0.018,0,0.027,0.003l-1.273,13.199
			l22.389,3.946l3.32-12.838c0.012,0,0.02,0.004,0.027,0.004c0.768,0.134,1.496-0.376,1.629-1.14
			C173.829,9.473,173.316,8.745,172.55,8.609z M150.705,17.047c-0.552-0.1-0.928-0.626-0.826-1.182
			c0.096-0.559,0.624-0.926,1.185-0.828c0.554,0.094,0.924,0.626,0.825,1.182C151.791,16.775,151.261,17.143,150.705,17.047z
			 M154.456,17.707c-0.556-0.096-0.927-0.626-0.829-1.182c0.098-0.557,0.626-0.927,1.182-0.828c0.559,0.1,0.93,0.626,0.832,1.182
			C155.542,17.435,155.009,17.805,154.456,17.707z M158.206,18.367c-0.556-0.099-0.927-0.624-0.828-1.183
			c0.095-0.552,0.625-0.926,1.185-0.827c0.555,0.098,0.926,0.628,0.828,1.184C159.292,18.097,158.761,18.465,158.206,18.367z
			 M161.956,19.029c-0.556-0.101-0.927-0.624-0.828-1.183c0.099-0.558,0.627-0.928,1.181-0.828c0.559,0.101,0.93,0.626,0.832,1.183
			C163.042,18.757,162.511,19.125,161.956,19.029z M165.706,19.691c-0.556-0.103-0.927-0.629-0.828-1.185
			c0.099-0.554,0.625-0.926,1.185-0.828c0.555,0.101,0.926,0.628,0.828,1.185C166.792,19.419,166.261,19.789,165.706,19.691z"/>
	</g>
	<path fill="#000000" d="M201.939,196.952c-2.021,1.291-4.039,2.586-6.058,3.875c-2.021,1.291-4.075,2.584-6.176,3.875
		c-2.584-0.89-4.888-1.979-6.904-3.271c-2.018-1.289-3.954-2.865-5.813-4.723c0.808-0.564,1.453-1.615,1.938-3.15
		c0.484-1.533,0.867-3.672,1.15-6.418c0.282-2.744,0.463-6.154,0.545-10.231c0.08-4.078,0.121-8.943,0.121-14.597
		c0-2.098-0.021-4.278-0.062-6.539c-0.041-2.26-0.102-4.438-0.182-6.541c-0.404-1.129-0.949-2.119-1.635-2.967
		c-0.688-0.848-1.717-1.676-3.088-2.481c2.018-1.291,4.016-2.585,5.994-3.878c1.979-1.291,3.977-2.582,5.996-3.875
		c4.52,1.777,8.639,4.402,12.354,7.873c-1.617,1.05-2.605,3.875-2.969,8.478c-0.361,4.604-0.545,11.308-0.545,20.104
		c0,3.07,0.02,6.238,0.061,9.509s0.141,6.479,0.303,9.627c0.646,0.971,1.334,1.879,2.061,2.728
		C199.759,195.193,200.729,196.064,201.939,196.952z M198.063,122.589c-1.615,1.453-3.25,2.928-4.904,4.42
		c-1.656,1.496-3.289,2.97-4.904,4.423c-1.777-1.132-3.494-2.423-5.148-3.875c-1.653-1.456-3.17-3.109-4.541-4.968
		c1.613-1.532,3.271-3.027,4.967-4.481c1.693-1.452,3.349-2.945,4.966-4.479c1.211,1.856,2.664,3.532,4.358,5.025
		C194.552,120.148,196.286,121.459,198.063,122.589z"/>
</g>
</svg>
